<svg width="40" height="40" viewBox="0 0 40 40" fill="none" xmlns="http://www.w3.org/2000/svg">
<path d="M33.6719 30.7039L33.6693 30.7042L33.1527 30.7709L33.1502 30.7712C30.3625 31.1452 26.4695 32.2934 23.3407 33.6054C22.596 33.9141 21.75 33.3532 21.75 32.5168V9.33346C21.75 8.90911 21.9916 8.50638 22.3887 8.28947C25.3803 6.67123 29.9165 5.2316 32.9714 4.9668H33.05C34.7739 4.9668 36.1667 6.35961 36.1667 8.08346V27.9001C36.1667 29.2621 35.0404 30.5346 33.6719 30.7039Z" fill="white" stroke="white"/>
<path d="M6.314 30.7042L6.3114 30.7039C4.94296 30.5346 3.81668 29.2621 3.81668 27.9001V8.08346C3.81668 6.35961 5.20949 4.9668 6.93335 4.9668H7.02858C10.0835 5.2316 14.6196 6.67122 17.6112 8.28944C18.0026 8.50319 18.2333 8.88605 18.2333 9.33346V32.5168C18.2333 33.3532 17.3874 33.9141 16.6427 33.6054C13.5139 32.2934 9.62089 31.1452 6.83316 30.7712L6.83067 30.7709L6.314 30.7042ZM12.0833 12.4001H8.33335C7.37387 12.4001 6.58335 13.1907 6.58335 14.1501C6.58335 15.1306 7.37823 15.9001 8.33335 15.9001H12.0833C13.0385 15.9001 13.8333 15.1306 13.8333 14.1501C13.8333 13.1907 13.0428 12.4001 12.0833 12.4001ZM8.33335 20.9001H13.3333C14.2885 20.9001 15.0833 20.1306 15.0833 19.1501C15.0833 18.1907 14.2928 17.4001 13.3333 17.4001H8.33335C7.37387 17.4001 6.58335 18.1907 6.58335 19.1501C6.58335 20.1306 7.37823 20.9001 8.33335 20.9001Z" fill="white" stroke="white"/>
</svg>
