<svg width="49" height="49" viewBox="0 0 49 49" fill="none" xmlns="http://www.w3.org/2000/svg">
<path fill-rule="evenodd" clip-rule="evenodd" d="M23.75 2.0708C11.7381 2.0708 2 11.8089 2 23.8208C2 35.8327 11.7381 45.5708 23.75 45.5708C35.7619 45.5708 45.5 35.8327 45.5 23.8208C45.5 11.8089 35.7619 2.0708 23.75 2.0708ZM25.7273 31.7299C25.7273 32.2543 25.519 32.7572 25.1481 33.128C24.7773 33.4988 24.2744 33.7072 23.75 33.7072C23.2256 33.7072 22.7227 33.4988 22.3519 33.128C21.981 32.7572 21.7727 32.2543 21.7727 31.7299V25.7981H15.8409C15.3165 25.7981 14.8136 25.5898 14.4428 25.2189C14.072 24.8481 13.8636 24.3452 13.8636 23.8208C13.8636 23.2964 14.072 22.7935 14.4428 22.4227C14.8136 22.0518 15.3165 21.8435 15.8409 21.8435H21.7727V15.9117C21.7727 15.3873 21.981 14.8844 22.3519 14.5136C22.7227 14.1428 23.2256 13.9344 23.75 13.9344C24.2744 13.9344 24.7773 14.1428 25.1481 14.5136C25.519 14.8844 25.7273 15.3873 25.7273 15.9117V21.8435H31.6591C32.1835 21.8435 32.6864 22.0518 33.0572 22.4227C33.428 22.7935 33.6364 23.2964 33.6364 23.8208C33.6364 24.3452 33.428 24.8481 33.0572 25.2189C32.6864 25.5898 32.1835 25.7981 31.6591 25.7981H25.7273V31.7299Z" fill="#92929D"/>
</svg>
