<svg width="87" height="64" viewBox="0 0 87 64" fill="none" xmlns="http://www.w3.org/2000/svg">
<path d="M74.3161 19.6302C71.964 14.0581 67.6178 8.27092 62.3841 4.66533C56.0701 0.317112 48.4333 -0.481743 40.747 0.229452C30.2797 1.20032 16.9853 11.4465 13.9553 26.0293C13.7162 27.1854 13.8696 26.9208 13.5826 27.0051C-6.3771 32.8716 -3.23334 55.4877 21.2029 52.9174C38.1194 72.907 71.5236 64.5843 76.2756 38.1411C79.4837 36.6393 80.3299 36.2258 81.1909 35.6089C89.0108 30.0004 89.344 17.5479 74.3161 19.6302ZM44.0573 2.22741C44.1052 2.15133 44.1382 2.07525 44.1629 1.99917C54.0248 1.69319 60.3256 4.49828 65.5889 10.0621C64.3288 11.8087 62.8328 13.3799 61.1438 14.718C53.4805 20.7813 51.9779 16.7788 50.6188 13.8563C48.4432 9.18224 41.6871 6.16214 44.0573 2.22741ZM9.11263 44.5352C5.84512 42.3157 6.11563 35.3311 13.3599 32.6219C13.4671 37.5275 14.7751 42.3587 17.0381 46.7069C14.747 46.5828 10.8924 45.7426 9.11263 44.5352ZM38.0518 61.2566C37.8621 60.3072 38.2283 58.9262 39.1965 58.0099C40.2192 57.0424 41.4562 57.1168 42.7593 56.915C47.6597 56.1575 48.6032 48.0399 53.6257 52.1086C56.2978 54.277 56.2186 58.817 56.4511 59.7846C50.6435 62.1051 44.1283 62.6939 38.0518 61.2566ZM58.3315 58.9609C58.0642 56.5991 57.6948 54.1248 56.3159 52.145C55.0425 50.3158 52.8405 48.8901 50.5445 49.1084C48.3162 49.3201 46.9521 50.9608 45.6359 52.5916C42.9341 55.9458 42.3848 54.5945 39.9767 55.3173C37.6774 56.0103 36.0197 58.3109 36.0395 60.6992C31.3155 59.2041 27.0518 56.4105 23.5781 52.6412C41.8125 50.4266 56.8107 46.9252 74.0719 39.15C72.091 47.9821 66.6099 55.0047 58.3315 58.9609ZM74.7119 30.1261C58.5558 39.7851 26.7005 46.434 19.2698 46.7168C7.35436 25.6042 24.6106 3.41991 41.9296 2.1166C40.0459 7.51011 46.8647 10.6559 48.712 14.4401C49.7512 16.5721 50.66 19.0447 53.2232 19.6848C57.8185 20.8343 64.0814 15.3564 66.93 11.5672C74.5899 20.697 74.9082 30.012 74.7119 30.1261ZM76.6186 28.6376C76.4949 27.4864 76.3135 26.3402 76.0678 25.2073C76.9552 25.3528 78.0339 26.9919 76.6186 28.6376Z" fill="#4547E3"/>
<path d="M21.462 27.2981C22.6645 29.4498 25.137 30.7201 27.5847 30.3479C30.0127 29.9791 32.0118 27.9745 32.4819 25.5763C32.6864 24.536 31.0963 24.0911 30.8918 25.1364C30.5438 26.9077 29.1813 28.4112 27.3653 28.7171C25.5658 29.0198 23.7614 28.0258 22.8872 26.4628C22.3659 25.535 20.9408 26.3685 21.462 27.2981Z" fill="#4547E3"/>
<path d="M41.1456 24.1836C41.7625 26.6628 44.2103 28.588 46.7982 28.3581C49.4324 28.1249 51.4529 25.9616 51.7482 23.3764C51.8686 22.3212 50.2192 22.3295 50.0988 23.3764C49.8992 25.118 48.3256 26.6446 46.5673 26.7191C44.7662 26.7951 43.1613 25.4604 42.7357 23.7436C42.4801 22.7116 40.89 23.1482 41.1456 24.1836Z" fill="#4547E3"/>
<path d="M35.3334 30.9299C36.2076 32.8038 39.2607 32.4085 39.7803 30.475C40.0574 29.4463 38.4657 29.0063 38.1902 30.0351C38.0203 30.6685 37.0125 30.6371 36.7585 30.0946C36.3082 29.132 34.8864 29.9706 35.3334 30.9299Z" fill="#4547E3"/>
</svg>
