<svg width="24" height="24" viewBox="0 0 24 24" fill="none" xmlns="http://www.w3.org/2000/svg">
<path fill-rule="evenodd" clip-rule="evenodd" d="M21.7046 4.59154C22.0162 3.18588 20.709 1.91748 19.2937 2.32708L3.63713 6.88281L3.48604 6.93304C2.01645 7.48611 1.79097 9.53286 3.16744 10.3802L9.64297 14.3661L13.5387 20.8202L13.6263 20.9534C14.5395 22.2329 16.5618 21.923 17.0228 20.372L21.668 4.73251L21.7046 4.59154ZM19.7846 3.75323C20.0734 3.72222 20.3202 4.00312 20.2303 4.30473L15.585 19.9448L15.5545 20.0214C15.4093 20.3069 14.9985 20.336 14.823 20.0451L11.135 13.9361L16.3875 8.64975L16.4598 8.56539C16.6767 8.27106 16.6511 7.85447 16.3839 7.5891L16.2996 7.51676C16.0052 7.29988 15.5887 7.32548 15.3233 7.59263L10.078 12.8721L3.95374 9.10284L3.88762 9.05318C3.64979 8.83652 3.72984 8.41781 4.05573 8.32322L19.7117 3.76765L19.7846 3.75323Z" fill="#4547E3"/>
</svg>
