<svg width="41" height="40" viewBox="0 0 41 40" fill="none" xmlns="http://www.w3.org/2000/svg">
<path d="M37.1667 21.034V24.4673C37.1667 25.4007 36.4 26.1673 35.45 26.1673H32.2333C30.4333 26.1673 28.7833 24.8507 28.6333 23.0507C28.5333 22.0007 28.9333 21.0173 29.6333 20.334C30.25 19.7007 31.1 19.334 32.0333 19.334H35.45C36.4 19.334 37.1667 20.1007 37.1667 21.034Z" fill="white"/>
<path d="M26.1333 23.2667C25.9833 21.5167 26.6167 19.8 27.8833 18.55C28.95 17.4667 30.4333 16.8333 32.0333 16.8333H32.9833C33.45 16.8333 33.8333 16.45 33.7667 15.9833C33.3167 12.75 30.5167 10.25 27.1667 10.25H10.5C6.81667 10.25 3.83333 13.2333 3.83333 16.9167V28.5833C3.83333 32.2667 6.81667 35.25 10.5 35.25H27.1667C30.5333 35.25 33.3167 32.75 33.7667 29.5167C33.8333 29.05 33.45 28.6667 32.9833 28.6667H32.2333C29.0667 28.6667 26.4 26.3 26.1333 23.2667ZM22.1667 19.8333H12.1667C11.4833 19.8333 10.9167 19.2833 10.9167 18.5833C10.9167 17.8833 11.4833 17.3333 12.1667 17.3333H22.1667C22.85 17.3333 23.4167 17.9 23.4167 18.5833C23.4167 19.2667 22.85 19.8333 22.1667 19.8333Z" fill="white"/>
<path d="M24.1833 6.63333C24.6167 7.08333 24.2333 7.75 23.6 7.75H10.55C8.73333 7.75 7.03333 8.28333 5.61667 9.2C4.96667 9.61667 4.08333 9.16667 4.4 8.45C5.33333 6.26667 7.51667 4.75 10.0333 4.75H19.4C21.3333 4.75 23.05 5.43333 24.1833 6.63333Z" fill="white"/>
</svg>
