<svg width="24" height="24" viewBox="0 0 24 24" fill="none" xmlns="http://www.w3.org/2000/svg">
<path d="M19.7897 4.22031C16.8297 1.27031 12.0297 1.27031 9.08966 4.22031C7.01966 6.27031 6.39966 9.22031 7.19966 11.8203L2.49966 16.5203C2.16966 16.8603 1.93966 17.5303 2.00966 18.0103L2.30966 20.1903C2.41966 20.9103 3.08966 21.5903 3.80966 21.6903L5.98966 21.9903C6.46966 22.0603 7.13966 21.8403 7.47966 21.4903L8.29966 20.6703C8.49966 20.4803 8.49966 20.1603 8.29966 19.9603L6.35966 18.0203C6.06966 17.7303 6.06966 17.2503 6.35966 16.9603C6.64966 16.6703 7.12966 16.6703 7.41966 16.9603L9.36966 18.9103C9.55966 19.1003 9.87966 19.1003 10.0697 18.9103L12.1897 16.8003C14.7797 17.6103 17.7297 16.9803 19.7897 14.9303C22.7397 11.9803 22.7397 7.17031 19.7897 4.22031ZM14.4997 12.0003C13.1197 12.0003 11.9997 10.8803 11.9997 9.50031C11.9997 8.12031 13.1197 7.00031 14.4997 7.00031C15.8797 7.00031 16.9997 8.12031 16.9997 9.50031C16.9997 10.8803 15.8797 12.0003 14.4997 12.0003Z" fill="white"/>
</svg>
