<svg width="24" height="24" viewBox="0 0 24 24" fill="none" xmlns="http://www.w3.org/2000/svg">
<path d="M14.9303 8.4V2.5C14.9303 2.22 14.7103 2 14.4303 2H9.57031C9.29031 2 9.07031 2.22 9.07031 2.5V8.4C9.07031 8.83 9.59031 9.06 9.91031 8.76L11.6603 7.16C11.8503 6.98 12.1503 6.98 12.3403 7.16L14.0903 8.77C14.4103 9.06 14.9303 8.84 14.9303 8.4Z" fill="white"/>
<path fill-rule="evenodd" clip-rule="evenodd" d="M16.43 2.56086C16.43 2.27086 16.69 2.02086 16.98 2.06086C19.78 2.41086 21 4.30086 21 7.00086V17.0009C21 20.0009 19.5 22.0009 16 22.0009H8C4.5 22.0009 3 20.0009 3 17.0009V7.00086C3 4.30086 4.22 2.41086 7.02 2.06086C7.31 2.02086 7.57 2.27086 7.57 2.56086V8.58086C7.57 9.34086 8.02 10.0309 8.72 10.3409C8.97 10.4509 9.23 10.5009 9.49 10.5009C9.96 10.5009 10.43 10.3309 10.79 9.99086L11.66 9.19086C11.86 9.01086 12.15 9.01086 12.34 9.19086L13.21 9.99086C13.77 10.5109 14.58 10.6409 15.28 10.3409C15.98 10.0309 16.43 9.34086 16.43 8.58086V2.56086ZM8.25 18.0009C8.25 18.4109 8.59 18.7509 9 18.7509H17.5C17.91 18.7509 18.25 18.4109 18.25 18.0009C18.25 17.5909 17.91 17.2509 17.5 17.2509H9C8.59 17.2509 8.25 17.5909 8.25 18.0009ZM13.25 14.7509H17.5C17.91 14.7509 18.25 14.4109 18.25 14.0009C18.25 13.5909 17.91 13.2509 17.5 13.2509H13.25C12.84 13.2509 12.5 13.5909 12.5 14.0009C12.5 14.4109 12.84 14.7509 13.25 14.7509Z" fill="white"/>
</svg>
