<svg width="24" height="24" viewBox="0 0 24 24" fill="none" xmlns="http://www.w3.org/2000/svg">
<path d="M11.0755 4.25763C10.285 4.89898 9.79302 5.93654 9.64766 7.62458C9.61213 8.03727 9.24877 8.34301 8.83609 8.30747C8.4234 8.27193 8.11766 7.90858 8.1532 7.49589C8.31784 5.58393 8.90578 4.08649 10.1303 3.09284C11.3342 2.11599 13.0167 1.74023 15.1104 1.74023H15.2404C17.5496 1.74023 19.3613 2.19802 20.577 3.41365C21.7926 4.62929 22.2504 6.44106 22.2504 8.75023V15.2702C22.2504 17.5794 21.7926 19.3912 20.577 20.6068C19.3613 21.8224 17.5496 22.2802 15.2404 22.2802H15.1104C13.0319 22.2802 11.3595 21.9095 10.1581 20.9484C8.93506 19.9699 8.33934 18.4943 8.16367 16.6098C8.12522 16.1974 8.42839 15.8319 8.84082 15.7935C9.25324 15.755 9.61875 16.0582 9.65719 16.4706C9.81152 18.1262 10.3058 19.1456 11.0952 19.7771C11.9062 20.4259 13.1689 20.7802 15.1104 20.7802H15.2404C17.4012 20.7802 18.7194 20.343 19.5163 19.5462C20.3132 18.7493 20.7504 17.4311 20.7504 15.2702V8.75023C20.7504 6.58941 20.3132 5.27118 19.5163 4.47431C18.7194 3.67745 17.4012 3.24023 15.2404 3.24023H15.1104C13.1541 3.24023 11.8866 3.59948 11.0755 4.25763Z" fill="#B8C5C9"/>
<path d="M1.25 12C1.25 11.5858 1.58579 11.25 2 11.25H14.1893L12.1201 9.18072C11.8272 8.88783 11.8272 8.41295 12.1201 8.12006C12.413 7.82717 12.8878 7.82717 13.1807 8.12006L16.5307 11.4701C16.8236 11.763 16.8236 12.2378 16.5307 12.5307L13.1807 15.8807C12.8878 16.1736 12.413 16.1736 12.1201 15.8807C11.8272 15.5878 11.8272 15.113 12.1201 14.8201L14.1901 12.75H2C1.58579 12.75 1.25 12.4142 1.25 12Z" fill="#B8C5C9"/>
</svg>
