<svg width="30" height="30" viewBox="0 0 30 30" fill="none" xmlns="http://www.w3.org/2000/svg">
<path fill-rule="evenodd" clip-rule="evenodd" d="M5.02734 14.25C5.41087 9.07745 9.72909 5 14.9996 5C14.1688 5 13.429 5.36421 12.8204 5.92113C12.2149 6.47525 11.7032 7.24878 11.2893 8.16315C10.873 9.08292 10.5496 10.1587 10.3308 11.3261C10.1553 12.2619 10.0485 13.2485 10.0129 14.25H5.02734ZM5.02734 15.75H10.0129C10.0485 16.7515 10.1553 17.7381 10.3308 18.6739C10.5496 19.8413 10.873 20.9171 11.2893 21.8368C11.7032 22.7512 12.2149 23.5247 12.8204 24.0789C13.429 24.6358 14.1688 25 14.9996 25C9.72909 25 5.41087 20.9226 5.02734 15.75Z" fill="white"/>
<path d="M14.9997 6.39453C14.7247 6.39453 14.3695 6.51154 13.9563 6.8896C13.5402 7.27044 13.1236 7.86733 12.7555 8.68055C12.3898 9.48838 12.0929 10.4636 11.8886 11.5534C11.7277 12.4116 11.6279 13.3214 11.5928 14.2492H18.4067C18.3716 13.3214 18.2718 12.4116 18.1109 11.5534C17.9066 10.4636 17.6097 9.48839 17.244 8.68055C16.8759 7.86733 16.4593 7.27044 16.0431 6.8896C15.63 6.51154 15.2748 6.39453 14.9997 6.39453Z" fill="white"/>
<path d="M11.8886 18.4458C12.0929 19.5356 12.3898 20.5108 12.7555 21.3186C13.1236 22.1319 13.5402 22.7287 13.9563 23.1096C14.3695 23.4876 14.7247 23.6047 14.9997 23.6047C15.2747 23.6047 15.63 23.4876 16.0431 23.1096C16.4593 22.7287 16.8759 22.1319 17.244 21.3186C17.6097 20.5108 17.9066 19.5356 18.1109 18.4458C18.2718 17.5876 18.3716 16.6778 18.4067 15.75H11.5928C11.6279 16.6778 11.7277 17.5876 11.8886 18.4458Z" fill="white"/>
<path d="M14.9995 5C15.8304 5 16.5702 5.36421 17.1787 5.92113C17.7843 6.47525 18.296 7.24878 18.7098 8.16315C19.1262 9.08292 19.4495 10.1587 19.6684 11.3261C19.8439 12.2619 19.9506 13.2485 19.9862 14.25H24.9718C24.5883 9.07745 20.2701 5 14.9995 5Z" fill="white"/>
<path d="M19.6684 18.6739C19.4495 19.8413 19.1262 20.9171 18.7098 21.8368C18.296 22.7512 17.7843 23.5247 17.1787 24.0789C16.5702 24.6358 15.8304 25 14.9995 25C20.2701 25 24.5883 20.9226 24.9718 15.75H19.9862C19.9506 16.7515 19.8439 17.7381 19.6684 18.6739Z" fill="white"/>
</svg>
