<svg width="24" height="24" viewBox="0 0 24 24" fill="none" xmlns="http://www.w3.org/2000/svg">
<path fill-rule="evenodd" clip-rule="evenodd" d="M12.0796 11.62H12.1896C14.9796 11.53 17.1796 9.25 17.1896 6.44C17.1896 3.58 14.8596 1.25 11.9996 1.25C9.13957 1.25 6.80957 3.58 6.80957 6.44C6.80957 9.25 8.99957 11.53 11.8996 11.62C11.9596 11.61 12.0296 11.61 12.0796 11.62ZM8.30957 6.44C8.30957 4.41 9.96957 2.75 11.9996 2.75C14.0296 2.75 15.6896 4.41 15.6896 6.44C15.6796 8.42 14.1396 10.03 12.1796 10.12C12.0496 10.11 11.9096 10.11 11.8596 10.12C9.86957 10.05 8.30957 8.44 8.30957 6.44Z" fill="#B8C5C9"/>
<path fill-rule="evenodd" clip-rule="evenodd" d="M6.74961 21.05C8.23961 22.05 10.2096 22.55 12.1696 22.55C14.1296 22.55 16.0896 22.05 17.5896 21.05C18.9796 20.12 19.7396 18.85 19.7396 17.48C19.7396 16.11 18.9696 14.85 17.5896 13.93C14.6096 11.94 9.74961 11.94 6.74961 13.93C5.35961 14.86 4.59961 16.13 4.59961 17.5C4.59961 18.87 5.35961 20.13 6.74961 21.05ZM6.09961 17.51C6.09961 16.65 6.61961 15.83 7.57961 15.19C10.0696 13.53 14.2696 13.53 16.7596 15.19C17.7096 15.82 18.2396 16.64 18.2396 17.49C18.2396 18.35 17.7196 19.17 16.7596 19.81C14.2696 21.48 10.0696 21.48 7.57961 19.81C6.62961 19.18 6.09961 18.36 6.09961 17.51Z" fill="#B8C5C9"/>
</svg>
