<svg width="24" height="24" viewBox="0 0 24 24" fill="none" xmlns="http://www.w3.org/2000/svg">
<path fill-rule="evenodd" clip-rule="evenodd" d="M4.5 2H7.5C9 2 10 3 10 4.5V18C10 19.08 9.56 20.07 8.86 20.79L8.82 20.83C8.73 20.92 8.63 21.01 8.54 21.08C8.24 21.34 7.9 21.54 7.55 21.68C7.44002 21.73 7.33004 21.77 7.22006 21.81C6.83006 21.94 6.41 22 6 22C5.73 22 5.46 21.97 5.2 21.92C5.07002 21.89 4.93998 21.86 4.81 21.82C4.65 21.77 4.5 21.72 4.35 21.65C4.35 21.6455 4.34907 21.6426 4.34907 21.6426C4.34907 21.6426 4.34547 21.6445 4.34 21.65C4.06 21.51 3.79 21.35 3.54 21.16L3.53 21.15C3.4 21.05 3.28 20.95 3.17 20.83C3.06 20.71 2.95 20.59 2.84 20.46C2.65 20.21 2.49 19.94 2.35 19.66C2.35547 19.6545 2.35743 19.6509 2.35743 19.6509C2.35743 19.6509 2.35453 19.65 2.35 19.65C2.35 19.65 2.35 19.64 2.34 19.63C2.28 19.49 2.23 19.34 2.18 19.19C2.14 19.06 2.11 18.93 2.08001 18.8C2.03001 18.54 2 18.27 2 18V4.5C2 3 3 2 4.5 2ZM4.5 18C4.5 18.83 5.17 19.5 6 19.5C6.83 19.5 7.5 18.83 7.5 18C7.5 17.17 6.83 16.5 6 16.5C5.17 16.5 4.5 17.17 4.5 18Z" fill="white"/>
<path d="M18.3702 11.2895L15.6602 13.9995L13.2002 16.4495C12.5702 17.0795 11.4902 16.6395 11.4902 15.7495V7.25953C11.4902 6.98953 11.6002 6.73953 11.7802 6.54953L12.7002 5.62953C13.6802 4.64953 15.2602 4.64953 16.2402 5.62953L18.3602 7.74953C19.3502 8.72953 19.3502 10.3095 18.3702 11.2895Z" fill="white"/>
<path d="M19.4999 14C20.8799 14 21.9999 15.12 21.9999 16.5V19.5C21.9999 20.88 20.8799 22 19.4999 22H12.3599C11.4699 22 11.0299 20.93 11.6499 20.3L17.5199 14.3C17.7099 14.11 17.9699 14 18.2299 14H19.4999Z" fill="white"/>
</svg>
