<svg width="24" height="24" viewBox="0 0 24 24" fill="none" xmlns="http://www.w3.org/2000/svg">
<path fill-rule="evenodd" clip-rule="evenodd" d="M14.4995 7.25C13.2569 7.25 12.2495 8.25736 12.2495 9.5C12.2495 10.7426 13.2569 11.75 14.4995 11.75C15.7422 11.75 16.7495 10.7426 16.7495 9.5C16.7495 8.25736 15.7422 7.25 14.4995 7.25ZM13.7495 9.5C13.7495 9.08579 14.0853 8.75 14.4995 8.75C14.9137 8.75 15.2495 9.08579 15.2495 9.5C15.2495 9.91421 14.9137 10.25 14.4995 10.25C14.0853 10.25 13.7495 9.91421 13.7495 9.5Z" fill="#6B657D"/>
<path fill-rule="evenodd" clip-rule="evenodd" d="M8.54998 3.68934C11.7934 0.446595 17.0571 0.448097 20.3091 3.68909C23.563 6.93203 23.563 12.2176 20.32 15.4606L20.3187 15.4619C18.172 17.5982 15.1448 18.3312 12.4088 17.6412L8.01301 22.0276C7.73471 22.3121 7.36545 22.5038 7.01839 22.6163C6.66915 22.7295 6.26463 22.7876 5.88493 22.733L5.88144 22.7325L3.70742 22.4333C3.15503 22.3566 2.66279 22.067 2.29937 21.7019C1.93576 21.3366 1.65126 20.8468 1.56827 20.3036L1.56659 20.2926L1.26752 18.1185L1.26703 18.1152C1.21115 17.727 1.27876 17.3188 1.39316 16.9756C1.50806 16.6309 1.69741 16.27 1.96148 15.998L1.96928 15.9899L6.36011 11.5992C5.6789 8.85854 6.39952 5.82983 8.54998 3.68934ZM19.2502 4.75154C16.5824 2.09274 12.2666 2.09403 9.61 4.75064L9.60871 4.75193C7.75592 6.59573 7.19424 9.25238 7.9165 11.5997C7.9982 11.8653 7.92644 12.1542 7.73 12.3506L3.03501 17.0456C2.96934 17.1147 2.88035 17.2575 2.81618 17.45C2.7509 17.6458 2.73858 17.8113 2.75182 17.9021L2.75269 17.9081L3.05176 20.0815C3.07986 20.2574 3.18508 20.4655 3.36247 20.6437C3.54121 20.8233 3.74448 20.9238 3.91192 20.9473L6.0979 21.2481C6.19719 21.2626 6.36627 21.2508 6.55595 21.1893C6.74696 21.1274 6.88054 21.0407 6.94171 20.9777L6.94984 20.9694L8.1303 19.7915L6.35933 18.0206C6.06644 17.7277 6.06644 17.2528 6.35933 16.9599C6.65222 16.667 7.1271 16.667 7.41999 16.9599L9.19208 18.732L11.6599 16.2694C11.8572 16.0725 12.1475 16.0013 12.4135 16.0845C14.7456 16.8138 17.4032 16.2465 19.2599 14.3995C21.9163 11.7425 21.9161 7.40842 19.2502 4.75154Z" fill="#6B657D"/>
</svg>
