<svg width="24" height="24" viewBox="0 0 24 24" fill="none" xmlns="http://www.w3.org/2000/svg">
<path fill-rule="evenodd" clip-rule="evenodd" d="M17.61 10.19H20.5C21.05 10.19 21.5 10.64 21.5 11.19V16.43C21.5 20 19.01 22 15.93 22H8.07C4.99 22 2.5 20 2.5 16.43V7.57C2.5 4 4.99 2 8.07 2H12.31C12.86 2 13.31 2.45 13.31 3V5.89C13.31 8.26 15.24 10.19 17.61 10.19ZM7.5 17.75H11.5C11.91 17.75 12.25 17.41 12.25 17C12.25 16.59 11.91 16.25 11.5 16.25H7.5C7.09 16.25 6.75 16.59 6.75 17C6.75 17.41 7.09 17.75 7.5 17.75ZM7.5 13.75H13.5C13.91 13.75 14.25 13.41 14.25 13C14.25 12.59 13.91 12.25 13.5 12.25H7.5C7.09 12.25 6.75 12.59 6.75 13C6.75 13.41 7.09 13.75 7.5 13.75Z" fill="#4447E2"/>
<path d="M14.6802 2.65048C14.6802 2.08048 15.3902 1.80048 15.8002 2.21048C16.7994 3.20968 18.3 4.72394 19.6126 6.04856C20.2443 6.68595 20.8324 7.27943 21.3002 7.75048C21.7002 8.15048 21.4002 8.82048 20.8302 8.82048C19.7002 8.82048 18.3801 8.82048 17.4302 8.81048C15.9202 8.81048 14.6802 7.60048 14.6802 6.14048V2.65048Z" fill="#4447E2"/>
</svg>
