<svg width="24" height="24" viewBox="0 0 24 24" fill="none" xmlns="http://www.w3.org/2000/svg">
<path d="M12.75 15.002C12.75 14.5877 12.4142 14.252 12 14.252C11.5858 14.252 11.25 14.5877 11.25 15.002V18.002C11.25 18.4162 11.5858 18.752 12 18.752C12.4142 18.752 12.75 18.4162 12.75 18.002V15.002Z" fill="#6B657D"/>
<path fill-rule="evenodd" clip-rule="evenodd" d="M14.4002 2.24707L14.3993 2.24638C13.0564 1.1678 10.9365 1.16603 9.60111 2.23654L2.67362 7.78454L2.67239 7.78552C2.15288 8.19893 1.76457 8.80506 1.52832 9.42431C1.29221 10.0432 1.17808 10.7535 1.2909 11.4074L1.29134 11.4098L2.62079 19.3666C2.92174 21.1473 4.5941 22.5617 6.4003 22.5617H17.6003C19.3972 22.5617 21.0785 21.1367 21.3797 19.3675L21.38 19.3653L22.71 11.4053L22.7105 11.4025C22.8169 10.7506 22.7005 10.0421 22.4648 9.42431C22.2292 8.80676 21.8443 8.20107 21.3307 7.78748L14.4002 2.24707ZM10.5395 3.40677C11.3239 2.7778 12.6634 2.77561 13.4604 3.41624L13.462 3.41747L20.3899 8.95582L20.3908 8.95654C20.6469 9.16308 20.8966 9.52206 21.0633 9.959C21.2299 10.3956 21.2835 10.8315 21.2303 11.1594L21.2301 11.1608L19.9009 19.1158L19.9007 19.1169C19.7213 20.1672 18.663 21.0617 17.6003 21.0617H6.4003C5.32669 21.0617 4.27913 20.1758 4.09981 19.1167L2.77006 11.1581L2.76926 11.1535C2.71281 10.828 2.76369 10.3944 2.92978 9.959C3.09584 9.52374 3.34711 9.16535 3.60699 8.95878L10.5395 3.40677Z" fill="#6B657D"/>
</svg>
