<svg width="24" height="24" viewBox="0 0 24 24" fill="none" xmlns="http://www.w3.org/2000/svg">
<path fill-rule="evenodd" clip-rule="evenodd" d="M4.23023 2.67969C6.11023 2.83969 8.88023 3.71969 10.7102 4.70969C11.0402 4.88969 11.2402 5.21969 11.2402 5.59969V19.5097C11.2402 20.2197 10.5202 20.7097 9.87023 20.4397C8.01023 19.6597 5.70023 18.9797 4.06023 18.7597L3.75023 18.7197C2.78023 18.5997 1.99023 17.7097 1.99023 16.7397V4.84969C1.99023 3.64969 2.96023 2.67969 4.16023 2.67969H4.23023ZM7.25023 7.73969H5.00023C4.59023 7.73969 4.25023 8.07969 4.25023 8.48969C4.25023 8.90969 4.59023 9.23969 5.00023 9.23969H7.25023C7.66023 9.23969 8.00023 8.90969 8.00023 8.48969C8.00023 8.07969 7.66023 7.73969 7.25023 7.73969ZM5.00023 12.2397H8.00023C8.41023 12.2397 8.75023 11.9097 8.75023 11.4897C8.75023 11.0797 8.41023 10.7397 8.00023 10.7397H5.00023C4.59023 10.7397 4.25023 11.0797 4.25023 11.4897C4.25023 11.9097 4.59023 12.2397 5.00023 12.2397Z" fill="#4447E2"/>
<path d="M22 16.7397V4.84969C22 3.64969 21.03 2.67969 19.83 2.67969H19.77C17.89 2.83969 15.12 3.71969 13.29 4.70969C12.96 4.88969 12.75 5.22969 12.75 5.59969V19.5097C12.75 20.2197 13.47 20.7097 14.12 20.4397C15.98 19.6597 18.29 18.9797 19.93 18.7597L20.24 18.7197C21.21 18.5997 22 17.7097 22 16.7397Z" fill="#4447E2"/>
</svg>
