<svg width="24" height="24" viewBox="0 0 24 24" fill="none" xmlns="http://www.w3.org/2000/svg">
<path d="M12.5 14C12.5 13.5858 12.8358 13.25 13.25 13.25H17.5C17.9142 13.25 18.25 13.5858 18.25 14C18.25 14.4142 17.9142 14.75 17.5 14.75H13.25C12.8358 14.75 12.5 14.4142 12.5 14Z" fill="#6B657D"/>
<path d="M9 17.25C8.58579 17.25 8.25 17.5858 8.25 18C8.25 18.4142 8.58579 18.75 9 18.75H17.5C17.9142 18.75 18.25 18.4142 18.25 18C18.25 17.5858 17.9142 17.25 17.5 17.25H9Z" fill="#6B657D"/>
<path fill-rule="evenodd" clip-rule="evenodd" d="M16 1.25C17.893 1.25 19.3685 1.79462 20.3621 2.86466C21.3464 3.92465 21.75 5.38503 21.75 7V17C21.75 18.615 21.3464 20.0754 20.3621 21.1353C19.3685 22.2054 17.893 22.75 16 22.75H8C6.10705 22.75 4.63152 22.2054 3.6379 21.1353C2.65363 20.0754 2.25 18.615 2.25 17V7C2.25 5.38503 2.65363 3.92465 3.6379 2.86466C4.63152 1.79462 6.10705 1.25 8 1.25H16ZM3.75 7C3.75 5.61497 4.09637 4.57535 4.7371 3.88534C5.3351 3.24133 6.28574 2.79877 7.75 2.75378V9.85999C7.75 10.9702 9.05621 11.4994 9.84367 10.7857L9.84854 10.7813L12 8.79673L14.1515 10.7813L14.1563 10.7857C14.9438 11.4994 16.25 10.9702 16.25 9.85999V2.75378C17.7143 2.79877 18.6649 3.24133 19.2629 3.88534C19.9036 4.57535 20.25 5.61497 20.25 7V17C20.25 18.385 19.9036 19.4246 19.2629 20.1147C18.6315 20.7946 17.607 21.25 16 21.25H8C6.39295 21.25 5.36848 20.7946 4.7371 20.1147C4.09637 19.4246 3.75 18.385 3.75 17V7ZM14.75 2.75H9.25V9.29268L11.1486 7.5414C11.6266 7.0929 12.3734 7.0929 12.8514 7.5414L14.75 9.29268V2.75Z" fill="#6B657D"/>
</svg>
