<svg width="24" height="24" viewBox="0 0 24 24" fill="none" xmlns="http://www.w3.org/2000/svg">
<path d="M14.2 2H16.8C20 2 22 4 21.99 7.2V16.8C21.99 20 19.99 22 16.79 22H14.2C11 22 9 20 9 16.8V12.75H13.44L11.37 14.82C11.08 15.11 11.08 15.59 11.37 15.88C11.66 16.17 12.14 16.17 12.43 15.88L15.78 12.53C16.07 12.24 16.07 11.76 15.78 11.47L12.43 8.12C12.14 7.83 11.66 7.83 11.37 8.12C11.22 8.27 11.15 8.46 11.15 8.65C11.15 8.84 11.22 9.03 11.37 9.18L13.44 11.25H9V7.2C9 4 11 2 14.2 2Z" fill="#4447E2"/>
<path d="M9 11.25H2.75C2.34 11.25 2 11.59 2 12C2 12.41 2.34 12.75 2.75 12.75H9V11.25Z" fill="#4447E2"/>
</svg>
