<svg width="30" height="30" viewBox="0 0 30 30" fill="none" xmlns="http://www.w3.org/2000/svg">
<path fill-rule="evenodd" clip-rule="evenodd" d="M12.2065 6.18191C11.9543 6.26179 11.7053 6.35257 11.4602 6.45411C10.3379 6.91897 9.3182 7.60032 8.45926 8.45926C7.60032 9.3182 6.91897 10.3379 6.45411 11.4602C6.0852 12.3508 5.85837 13.2922 5.78045 14.25H10.2609C10.2929 13.1541 10.395 12.0741 10.5646 11.0506C10.7725 9.79558 11.0797 8.63914 11.4752 7.65039C11.6911 7.11057 11.9351 6.61641 12.2065 6.18191ZM15 4.25C13.5883 4.25 12.1904 4.52806 10.8862 5.06829C9.5819 5.60853 8.39683 6.40037 7.3986 7.3986C6.40037 8.39683 5.60853 9.5819 5.0683 10.8862C4.52806 12.1904 4.25 13.5883 4.25 15C4.25 16.4117 4.52806 17.8096 5.06829 19.1138C5.60853 20.4181 6.40037 21.6032 7.3986 22.6014C8.39683 23.5996 9.5819 24.3915 10.8862 24.9317C12.1904 25.4719 13.5883 25.75 15 25.75C16.4117 25.75 17.8096 25.4719 19.1138 24.9317C20.4181 24.3915 21.6032 23.5996 22.6014 22.6014C23.5996 21.6032 24.3915 20.4181 24.9317 19.1138C25.4719 17.8096 25.75 16.4117 25.75 15C25.75 13.5883 25.4719 12.1904 24.9317 10.8862C24.3915 9.5819 23.5996 8.39683 22.6014 7.3986C21.6032 6.40037 20.4181 5.60853 19.1138 5.0683C17.8096 4.52806 16.4117 4.25 15 4.25ZM15 5.75C14.7387 5.75 14.4012 5.87579 14.0088 6.2822C13.6134 6.69161 13.2176 7.33326 12.8679 8.20747C12.5206 9.07589 12.2385 10.1242 12.0444 11.2958C11.8887 12.2357 11.7932 13.2331 11.7616 14.25L18.2384 14.25C18.2068 13.2331 18.1113 12.2357 17.9556 11.2958C17.7615 10.1242 17.4794 9.0759 17.1321 8.20748C16.7824 7.33326 16.3866 6.69161 15.9912 6.2822C15.5988 5.87579 15.2613 5.75 15 5.75ZM19.7391 14.25C19.7071 13.1541 19.605 12.0741 19.4354 11.0506C19.2275 9.79558 18.9203 8.63914 18.5248 7.65039C18.3089 7.11057 18.0649 6.61641 17.7935 6.18191C18.0457 6.26179 18.2947 6.35257 18.5398 6.45411C19.6621 6.91897 20.6818 7.60032 21.5407 8.45926C22.3997 9.31821 23.081 10.3379 23.5459 11.4602C23.9148 12.3508 24.1416 13.2922 24.2195 14.25H19.7391ZM18.2384 15.75L11.7616 15.75C11.7932 16.7669 11.8887 17.7643 12.0444 18.7042C12.2385 19.8758 12.5206 20.9241 12.8679 21.7925C13.2176 22.6667 13.6134 23.3084 14.0088 23.7178C14.4012 24.1242 14.7387 24.25 15 24.25C15.2613 24.25 15.5988 24.1242 15.9912 23.7178C16.3866 23.3084 16.7824 22.6667 17.1321 21.7925C17.4794 20.9241 17.7615 19.8758 17.9556 18.7042C18.1113 17.7643 18.2068 16.7669 18.2384 15.75ZM17.7935 23.8181C18.0649 23.3836 18.3089 22.8894 18.5248 22.3496C18.9203 21.3609 19.2275 20.2044 19.4354 18.9494C19.605 17.9259 19.7071 16.8459 19.7391 15.75H24.2195C24.1416 16.7078 23.9148 17.6492 23.5459 18.5398C23.081 19.6621 22.3997 20.6818 21.5407 21.5407C20.6818 22.3997 19.6621 23.081 18.5398 23.5459C18.2947 23.6474 18.0457 23.7382 17.7935 23.8181ZM12.2065 23.8181C11.9351 23.3836 11.6911 22.8894 11.4752 22.3496C11.0797 21.3609 10.7725 20.2044 10.5646 18.9494C10.395 17.9259 10.2929 16.8459 10.2609 15.75H5.78045C5.85837 16.7078 6.0852 17.6492 6.45411 18.5398C6.91897 19.6621 7.60032 20.6818 8.45926 21.5407C9.3182 22.3997 10.3379 23.081 11.4602 23.5459C11.7053 23.6474 11.9543 23.7382 12.2065 23.8181Z" fill="#6B657D"/>
</svg>
