<svg width="30" height="30" viewBox="0 0 30 30" fill="none" xmlns="http://www.w3.org/2000/svg">
<path fill-rule="evenodd" clip-rule="evenodd" d="M5.02734 14.25C5.41087 9.07745 9.72909 5 14.9996 5C14.1688 5 13.429 5.36421 12.8204 5.92113C12.2149 6.47525 11.7032 7.24878 11.2893 8.16315C10.873 9.08292 10.5496 10.1587 10.3308 11.3261C10.1553 12.2619 10.0485 13.2485 10.0129 14.25H5.02734ZM5.02734 15.75H10.0129C10.0485 16.7515 10.1553 17.7381 10.3308 18.6739C10.5496 19.8413 10.873 20.9171 11.2893 21.8368C11.7032 22.7512 12.2149 23.5247 12.8204 24.0789C13.429 24.6358 14.1688 25 14.9996 25C9.72909 25 5.41087 20.9226 5.02734 15.75Z" fill="#4447E2"/>
<path d="M14.9996 6.39535C14.7246 6.39535 14.3694 6.51236 13.9562 6.89042C13.5401 7.27126 13.1235 7.86815 12.7554 8.68137C12.3897 9.4892 12.0928 10.4644 11.8885 11.5542C11.7276 12.4124 11.6278 13.3222 11.5927 14.25H18.4066C18.3715 13.3222 18.2717 12.4124 18.1108 11.5542C17.9065 10.4644 17.6096 9.48921 17.2439 8.68137C16.8758 7.86815 16.4592 7.27126 16.043 6.89042C15.6299 6.51236 15.2747 6.39535 14.9996 6.39535Z" fill="#4447E2"/>
<path d="M11.8885 18.4458C12.0928 19.5356 12.3897 20.5108 12.7554 21.3186C13.1235 22.1319 13.5401 22.7287 13.9562 23.1096C14.3694 23.4876 14.7246 23.6047 14.9996 23.6047C15.2746 23.6047 15.6299 23.4876 16.043 23.1096C16.4592 22.7287 16.8758 22.1319 17.2439 21.3186C17.6096 20.5108 17.9065 19.5356 18.1108 18.4458C18.2717 17.5876 18.3715 16.6778 18.4066 15.75H11.5927C11.6278 16.6778 11.7276 17.5876 11.8885 18.4458Z" fill="#4447E2"/>
<path d="M14.9996 5C15.8305 5 16.5703 5.36421 17.1788 5.92113C17.7844 6.47525 18.2961 7.24878 18.7099 8.16315C19.1263 9.08292 19.4496 10.1587 19.6685 11.3261C19.844 12.2619 19.9507 13.2485 19.9863 14.25H24.9719C24.5884 9.07745 20.2702 5 14.9996 5Z" fill="#4447E2"/>
<path d="M19.6685 18.6739C19.4496 19.8413 19.1263 20.9171 18.7099 21.8368C18.2961 22.7512 17.7844 23.5247 17.1788 24.0789C16.5703 24.6358 15.8305 25 14.9996 25C20.2702 25 24.5884 20.9226 24.9719 15.75H19.9863C19.9507 16.7515 19.844 17.7381 19.6685 18.6739Z" fill="#4447E2"/>
</svg>
