<svg width="24" height="24" viewBox="0 0 24 24" fill="none" xmlns="http://www.w3.org/2000/svg">
<path d="M10.25 6.5H13.75C14.99 6.5 16 5.49 16 4.25C16 3.63 15.75 3.07 15.34 2.66C14.93 2.25 14.37 2 13.75 2H10.25C9.01 2 8 3.01 8 4.25C8 4.87 8.25 5.43 8.66 5.84C9.07 6.25 9.63 6.5 10.25 6.5Z" fill="#4447E2"/>
<path fill-rule="evenodd" clip-rule="evenodd" d="M18.06 4.5807C18.34 4.6907 18.6 4.8407 18.83 5.0307C19.55 5.6207 20 6.6207 20 8.2507V18.0007C20 21.0007 18.21 22.0007 16 22.0007H8C5.79 22.0007 4 21.0007 4 18.0007V8.2507C4 6.1207 4.77 5.0607 5.93 4.5907C6.22 4.4707 6.52 4.7107 6.58 5.0107C6.72 5.7207 7.08 6.3807 7.6 6.9007C8.31 7.6107 9.25 8.0007 10.25 8.0007H13.75C15.57 8.0007 17.08 6.7107 17.42 5.0007C17.48 4.7007 17.77 4.4707 18.06 4.5807ZM12 12.2507H8C7.59 12.2507 7.25 12.5907 7.25 13.0007C7.25 13.4107 7.59 13.7507 8 13.7507H12C12.41 13.7507 12.75 13.4107 12.75 13.0007C12.75 12.5907 12.41 12.2507 12 12.2507ZM7.25 17.0007C7.25 17.4107 7.59 17.7507 8 17.7507H16C16.41 17.7507 16.75 17.4107 16.75 17.0007C16.75 16.5907 16.41 16.2507 16 16.2507H8C7.59 16.2507 7.25 16.5907 7.25 17.0007Z" fill="#4447E2"/>
</svg>
