<svg width="24" height="24" viewBox="0 0 24 24" fill="none" xmlns="http://www.w3.org/2000/svg">
<path d="M8 13.75H12C12.41 13.75 12.75 13.41 12.75 13C12.75 12.59 12.41 12.25 12 12.25H8C7.59 12.25 7.25 12.59 7.25 13C7.25 13.41 7.59 13.75 8 13.75Z" fill="#6B657D"/>
<path d="M16.75 17C16.75 17.41 16.41 17.75 16 17.75H8C7.59 17.75 7.25 17.41 7.25 17C7.25 16.59 7.59 16.25 8 16.25H16C16.41 16.25 16.75 16.59 16.75 17Z" fill="#6B657D"/>
<path fill-rule="evenodd" clip-rule="evenodd" d="M16.6624 3.52535C16.5332 3.00295 16.2636 2.52357 15.87 2.13C15.3 1.56 14.55 1.25 13.75 1.25H10.25C8.84967 1.25 7.66542 2.22236 7.33909 3.52523C4.62633 3.74024 3.25 5.32846 3.25 8.25V18C3.25 21.02 4.98 22.75 8 22.75H16C19.02 22.75 20.75 21.02 20.75 18V8.25C20.75 5.32899 19.3742 3.74082 16.6624 3.52535ZM13.8079 7.24945C13.7886 7.24981 13.7693 7.25 13.75 7.25H10.25C9.45 7.25 8.7 6.94 8.13 6.37C7.74787 5.98786 7.48259 5.52483 7.34924 5.02007C5.76966 5.15023 4.75 5.86037 4.75 8.25V18C4.75 20.22 5.78 21.25 8 21.25H16C18.22 21.25 19.25 20.22 19.25 18V8.25C19.25 5.86 18.23 5.16 16.65 5.02C16.3148 6.2822 15.1724 7.2235 13.8079 7.24945ZM8.75 4.25C8.75 3.42 9.42 2.75 10.25 2.75H13.75C14.15 2.75 14.53 2.91 14.81 3.19C15.09 3.47 15.25 3.85 15.25 4.25C15.25 5.08 14.58 5.75 13.75 5.75H10.25C9.85 5.75 9.47 5.59 9.19 5.31C8.91 5.03 8.75 4.65 8.75 4.25Z" fill="#6B657D"/>
</svg>
